<?xml version="1.0" encoding="utf-8"?>
<!-- Generator: Adobe Illustrator 26.4.1, SVG Export Plug-In . SVG Version: 6.00 Build 0)  -->
<svg version="1.1" id="Ebene_1" xmlns="http://www.w3.org/2000/svg" xmlns:xlink="http://www.w3.org/1999/xlink" x="0px" y="0px"
	 viewBox="0 0 120 120" style="enable-background:new 0 0 120 120;" xml:space="preserve">
<style type="text/css">
	.st0{fill:none;stroke:#009EE3;stroke-width:0.8426;stroke-linecap:round;stroke-miterlimit:10;}
	.st1{fill:none;stroke:#FFEA00;stroke-width:0.8426;stroke-linecap:round;stroke-miterlimit:10;}
</style>
<path class="st0" d="M77.3,66c5.3-1.2-0.9-12,6-12c7.5,0-0.3,12,7.1,12s-0.2-12,7.2-12c7.5,0-0.4,11.9,7.1,12s-0.3-12,7.2-12
	c6.8,0,0.7,10.4,6,12"/>
<path class="st0" d="M76.5,52c2.9-4.6-9.1-7.8-4.2-12.7c5.3-5.3,8.2,8.7,13.5,3.4c5.2-5.2-8.6-8.3-3.3-13.6
	c5.2-5.2,8.1,8.7,13.5,3.4s-8.6-8.3-3.4-13.5c4.8-4.8,7.9,6.9,12.7,4.2"/>
<path class="st0" d="M66,42.7c-1.2-5.3-12,0.9-12-6c0-7.5,12,0.3,12-7.1s-12,0.2-12-7.2s11.9,0.4,12-7.1S54,15.4,54,8
	c0-6.8,10.4-0.7,12-6"/>
<path class="st1" d="M52,43.5c-4.6-2.9-7.8,9.1-12.7,4.2c-5.3-5.3,8.7-8.2,3.4-13.5c-5.2-5.2-8.3,8.6-13.6,3.3
	c-5.2-5.2,8.7-8.1,3.4-13.5c-5.3-5.4-8.3,8.6-13.5,3.4c-4.8-4.8,6.9-7.9,4.2-12.7"/>
<path class="st0" d="M42.7,54c-5.3,1.2,0.9,12-6,12c-7.5,0,0.3-12-7.1-12s0.2,12-7.2,12s0.4-11.9-7.1-12C7.6,54,15.4,66,8,66
	c-6.8,0-0.7-10.4-6-12"/>
<path class="st0" d="M43.5,68c-2.9,4.6,9.1,7.8,4.2,12.7c-5.3,5.3-8.2-8.7-13.5-3.4c-5.2,5.2,8.6,8.3,3.3,13.6
	c-5.2,5.2-8.1-8.7-13.5-3.4c-5.4,5.3,8.6,8.3,3.4,13.5c-4.8,4.8-7.9-6.9-12.7-4.2"/>
<path class="st0" d="M54,77.3c1.2,5.3,12-0.9,12,6c0,7.5-12-0.3-12,7.1s12-0.2,12,7.2c0,7.5-11.9-0.4-12,7.1c-0.1,7.5,12-0.3,12,7.2
	c0,6.8-10.4,0.7-12,6"/>
<path class="st0" d="M68,76.5c4.6,2.9,7.8-9.1,12.7-4.2c5.3,5.3-8.7,8.2-3.4,13.5c5.2,5.2,8.3-8.6,13.6-3.3
	c5.2,5.2-8.7,8.1-3.4,13.5c5.3,5.4,8.3-8.6,13.5-3.4c4.8,4.8-6.9,7.9-4.2,12.7"/>
</svg>
