<?xml version="1.0" encoding="UTF-8"?>
<!DOCTYPE svg PUBLIC "-//W3C//DTD SVG 1.1//EN" "http://www.w3.org/Graphics/SVG/1.1/DTD/svg11.dtd">
<svg xmlns="http://www.w3.org/2000/svg" version="1.1" width="374px" height="147px" style="shape-rendering:geometricPrecision; text-rendering:geometricPrecision; image-rendering:optimizeQuality; fill-rule:evenodd; clip-rule:evenodd" xmlns:xlink="http://www.w3.org/1999/xlink">
<g><path style="opacity:1" fill="#fefefe" d="M -0.5,-0.5 C 124.167,-0.5 248.833,-0.5 373.5,-0.5C 373.5,48.5 373.5,97.5 373.5,146.5C 248.833,146.5 124.167,146.5 -0.5,146.5C -0.5,97.5 -0.5,48.5 -0.5,-0.5 Z"/></g>
<g><path style="opacity:1" fill="#23a4e5" d="M 67.5,48.5 C 68.4731,46.0521 68.8064,43.3854 68.5,40.5C 64.5,40.5 60.5,40.5 56.5,40.5C 54.4178,39.4151 54.0844,37.9151 55.5,36C 60.5,35.3333 65.5,35.3333 70.5,36C 71.3081,36.3076 71.9747,36.8076 72.5,37.5C 76.2214,58.2799 67.5547,67.1132 46.5,64C 39.4923,61.6562 35.3256,56.8229 34,49.5C 33.0867,40.4236 33.42,31.4236 35,22.5C 36.8333,18 40,14.8333 44.5,13C 50.5,12.3333 56.5,12.3333 62.5,13C 67.5516,14.0514 70.5516,17.0514 71.5,22C 71.6125,23.6624 70.9458,24.8291 69.5,25.5C 67.4925,23.9918 65.8259,22.1584 64.5,20C 57.473,16.7179 50.473,16.7179 43.5,20C 42.2125,21.4095 41.0458,22.9095 40,24.5C 39.1092,34.2278 39.4425,43.8945 41,53.5C 42.5429,55.3783 44.3762,56.8783 46.5,58C 51.9212,58.8392 57.2545,58.5059 62.5,57C 65.5796,55.0088 67.2463,52.1754 67.5,48.5 Z"/></g>
<g><path style="opacity:1" fill="#1da3e4" d="M 97.5,12.5 C 101.224,12.0502 103.391,13.7168 104,17.5C 108.722,30.6108 113.722,43.6108 119,56.5C 120.15,58.7538 120.484,61.0871 120,63.5C 118.951,64.5171 117.784,64.6838 116.5,64C 114.278,60.8323 112.944,57.3323 112.5,53.5C 104.16,53.3336 95.8267,53.5003 87.5,54C 86.0036,57.1493 84.5036,60.3159 83,63.5C 81.6667,64.8333 80.3333,64.8333 79,63.5C 83.992,46.1615 90.1586,29.1615 97.5,12.5 Z"/></g>
<g><path style="opacity:1" fill="#757575" d="M 146.5,12.5 C 154.461,11.0461 161.294,13.0461 167,18.5C 167.667,19.8333 168.333,21.1667 169,22.5C 169.333,31.5 169.667,40.5 170,49.5C 172.388,59.1097 178.221,61.943 187.5,58C 190.785,56.1987 192.619,53.3654 193,49.5C 193.333,40.8333 193.667,32.1667 194,23.5C 197.948,13.7769 205.114,10.2769 215.5,13C 221,14.5 224.5,18 226,23.5C 226.1,33.8918 226.767,44.2251 228,54.5C 233.4,60.1968 239.566,61.0302 246.5,57C 247.46,55.5806 248.293,54.0806 249,52.5C 249.333,43.1667 249.667,33.8333 250,24.5C 254.377,12.7375 262.543,9.23752 274.5,14C 277.333,15.5 279.5,17.6667 281,20.5C 282.056,31.1423 283.056,41.809 284,52.5C 285.307,56.474 287.974,59.1406 292,60.5C 292.611,64.0876 291.111,65.2542 287.5,64C 281.417,60.6762 278.251,55.5095 278,48.5C 277.667,40.1667 277.333,31.8333 277,23.5C 274.792,18.8949 271.125,16.8949 266,17.5C 261.408,16.7959 258.075,18.4625 256,22.5C 254.742,32.4268 254.076,42.4268 254,52.5C 252.938,58.5621 249.438,62.3954 243.5,64C 232.36,66.3547 225.193,62.1881 222,51.5C 221.667,42.5 221.333,33.5 221,24.5C 219.289,19.1422 215.622,16.8088 210,17.5C 204.875,16.8949 201.208,18.8949 199,23.5C 198.667,32.1667 198.333,40.8333 198,49.5C 195.5,61.8051 188,66.6385 175.5,64C 170.572,62.0732 167.406,58.5732 166,53.5C 164.771,43.5588 164.104,33.5588 164,23.5C 161.792,18.8949 158.125,16.8949 153,17.5C 148.553,16.949 145.219,18.6157 143,22.5C 141.947,33.4759 140.947,44.4759 140,55.5C 138.08,61.1056 134.246,63.9389 128.5,64C 127.253,62.5064 127.253,61.0064 128.5,59.5C 132.874,58.6249 135.374,55.9583 136,51.5C 136.076,41.4268 136.742,31.4268 138,21.5C 139.688,17.3148 142.521,14.3148 146.5,12.5 Z"/></g>
<g><path style="opacity:1" fill="#1fa3e4" d="M 317.5,12.5 C 320.238,11.9648 322.072,12.9648 323,15.5C 328.47,30.2452 334.137,44.9118 340,59.5C 340.725,64.5888 339.058,65.5888 335,62.5C 334.22,59.4883 333.053,56.6549 331.5,54C 323.5,53.3333 315.5,53.3333 307.5,54C 305.618,56.978 304.118,60.1447 303,63.5C 301.667,64.8333 300.333,64.8333 299,63.5C 298.808,60.0533 299.475,56.72 301,53.5C 306.419,39.7308 311.919,26.0641 317.5,12.5 Z"/></g>
<g><path style="opacity:1" fill="#f7fcfe" d="M 98.5,22.5 C 99.7498,22.5774 100.583,23.244 101,24.5C 104.133,32.4245 106.966,40.4245 109.5,48.5C 102.8,48.83 96.1335,48.4967 89.5,47.5C 92.7042,39.2193 95.7042,30.886 98.5,22.5 Z"/></g>
<g><path style="opacity:1" fill="#f8fcfe" d="M 318.5,22.5 C 320.136,23.7489 321.303,25.4156 322,27.5C 324.402,34.2054 326.902,40.8721 329.5,47.5C 322.866,48.4967 316.2,48.83 309.5,48.5C 312.102,39.6952 315.102,31.0285 318.5,22.5 Z"/></g>
<g><path style="opacity:1" fill="#91d5f3" d="M 56.5,40.5 C 60.5,40.5 64.5,40.5 68.5,40.5C 68.8064,43.3854 68.4731,46.0521 67.5,48.5C 67.5,46.1667 67.5,43.8333 67.5,41.5C 63.6286,41.815 59.9619,41.4816 56.5,40.5 Z"/></g>
<g><path style="opacity:1" fill="#787878" d="M 194.5,84.5 C 196.911,84.1367 198.411,85.1367 199,87.5C 204.667,102.167 210.333,116.833 216,131.5C 221.975,115.904 228.142,100.404 234.5,85C 235.448,84.5172 236.448,84.3505 237.5,84.5C 231.108,101.504 224.608,118.504 218,135.5C 215.546,137.013 213.879,136.346 213,133.5C 206.528,117.248 200.362,100.914 194.5,84.5 Z"/></g>
<g><path style="opacity:1" fill="#7c7c7c" d="M 246.5,85.5 C 251.159,85.0146 252.492,86.848 250.5,91C 245.728,91.8104 244.395,89.9771 246.5,85.5 Z"/></g>
<g><path style="opacity:1" fill="#797979" d="M 286.5,112.5 C 286.5,114.5 286.5,116.5 286.5,118.5C 278.316,118.174 270.316,118.508 262.5,119.5C 262.536,130.374 267.87,134.874 278.5,133C 281.112,132.361 283.446,131.194 285.5,129.5C 286.754,131.259 286.421,132.759 284.5,134C 268.691,140.425 260.024,135.091 258.5,118C 259.268,105.891 265.601,100.224 277.5,101C 282.944,102.942 285.944,106.775 286.5,112.5 Z"/></g>
<g><path style="opacity:1" fill="#747474" d="M 246.5,101.5 C 247.5,101.5 248.5,101.5 249.5,101.5C 249.5,112.833 249.5,124.167 249.5,135.5C 248.5,135.5 247.5,135.5 246.5,135.5C 246.5,124.167 246.5,112.833 246.5,101.5 Z"/></g>
<g><path style="opacity:1" fill="#7b7b7b" d="M 291.5,100.5 C 292.833,100.5 294.167,100.5 295.5,100.5C 298.198,110.953 301.364,121.286 305,131.5C 308.068,121.464 311.234,111.464 314.5,101.5C 316.782,100.1 318.282,100.766 319,103.5C 321.371,112.652 324.204,121.652 327.5,130.5C 331.109,121.008 334.109,111.341 336.5,101.5C 337.978,101.238 339.311,101.571 340.5,102.5C 336.426,113.723 332.759,125.056 329.5,136.5C 328.167,136.5 326.833,136.5 325.5,136.5C 322.945,126.274 319.779,116.274 316,106.5C 312.845,116.12 309.845,125.787 307,135.5C 305.667,136.833 304.333,136.833 303,135.5C 299.06,123.847 295.227,112.18 291.5,100.5 Z"/></g>
<g><path style="opacity:1" fill="#a6a6a6" d="M 246.5,101.5 C 247.568,100.566 248.901,100.232 250.5,100.5C 250.5,112.5 250.5,124.5 250.5,136.5C 248.901,136.768 247.568,136.434 246.5,135.5C 247.5,135.5 248.5,135.5 249.5,135.5C 249.5,124.167 249.5,112.833 249.5,101.5C 248.5,101.5 247.5,101.5 246.5,101.5 Z"/></g>
<g><path style="opacity:1" fill="#fafafa" d="M 269.5,103.5 C 278.14,102.803 282.806,106.803 283.5,115.5C 276.5,115.5 269.5,115.5 262.5,115.5C 262.796,110.233 265.129,106.233 269.5,103.5 Z"/></g>
<g><path style="opacity:1" fill="#d8d8d8" d="M 286.5,112.5 C 287.468,114.607 287.802,116.941 287.5,119.5C 279.167,119.5 270.833,119.5 262.5,119.5C 270.316,118.508 278.316,118.174 286.5,118.5C 286.5,116.5 286.5,114.5 286.5,112.5 Z"/></g>
</svg>
