<?xml version="1.0" encoding="utf-8"?>
<svg viewBox="0 0 500 500" xmlns="http://www.w3.org/2000/svg" xmlns:bx="https://boxy-svg.com">
  <path d="M 1206.4 382.4 m -92.982 0 a 92.982 91.897 0 1 0 185.964 0 a 92.982 91.897 0 1 0 -185.964 0 Z M 1206.4 382.4 m -74.385 0 a 74.385 73.518 0 0 1 148.77 0 a 74.385 73.518 0 0 1 -148.77 0 Z" style="fill: rgb(110, 110, 110);" transform="matrix(-0.497587, 0.867414, -0.867414, -0.497587, 1045.759137, -491.797377)" bx:shape="ring 1206.4 382.4 74.385 73.518 92.982 91.897 1@07e18de5"/>
  <path d="M 1206.4 382.4 m -92.982 0 a 92.982 91.897 0 1 0 185.964 0 a 92.982 91.897 0 1 0 -185.964 0 Z M 1206.4 382.4 m -74.385 0 a 74.385 73.518 0 0 1 148.77 0 a 74.385 73.518 0 0 1 -148.77 0 Z" style="fill: rgb(110, 110, 110);" transform="matrix(-0.497587, 0.867414, -0.867414, -0.497587, 1274.30589, -501.022414)" bx:shape="ring 1206.4 382.4 74.385 73.518 92.982 91.897 1@07e18de5"/>
  <g stroke="#6e6e6e" stroke-width="30" fill="#6e6e6e">
    <path d="M53.535 64.141l65.051 301.718"/>
    <path d="M118.182 366.162l223.434-5.556"/>
    <path d="M411.111 60.606L342.02 360.202"/>
  </g>
  <g style="stroke-width: 20; stroke: rgb(46, 159, 214); fill-opacity: 0;">
  <rect x="19.765" y="30" width="65" height="65" />
  <rect x="374.535" y="30" width="65" height="65" />
  <rect x="368.107" y="268.853" width="65" height="65" />
  <rect x="361.769" y="378.192" width="65" height="65" />
  <rect x="252.475" y="374.486" width="65" height="65" />
  <rect x="135.503" y="385.581" width="65" height="65" />
  <rect y="379.812" width="65" height="65"  x="14.992"/>
  <rect y="270.124" width="65" height="65"  x="23.096"/>
  </g>
</svg>