<?xml version="1.0" encoding="utf-8"?>
<svg viewBox="0 0 500 500" xmlns="http://www.w3.org/2000/svg">
	<g style="fill: none; stroke: rgb(0, 158, 227); stroke-linecap: round; stroke-miterlimit: 10; stroke-width: 8px;">
		<path d="M 324.849 276.1 C 347.714 270.924 320.967 224.332 350.733 224.332 C 383.089 224.332 349.439 276.1 381.363 276.1 C 413.288 276.1 380.5 224.332 412.425 224.332 C 444.78 224.332 410.699 275.668 443.054 276.1 C 475.41 276.532 441.76 224.332 474.116 224.332 C 503.452 224.332 477.136 269.198 500 276.1"/>
		<path d="M 321.398 215.704 C 333.909 195.858 282.14 182.054 303.279 160.914 C 326.143 138.05 338.654 198.446 361.518 175.582 C 383.952 153.15 324.417 139.776 347.283 116.912 C 369.715 94.478 382.226 154.444 405.522 131.578 C 428.818 108.714 368.421 95.772 390.854 73.34 C 411.562 52.632 424.936 103.106 445.643 91.458"/>
		<path d="M 276.1 175.582 C 270.923 152.718 224.331 179.466 224.331 149.698 C 224.331 117.342 276.1 150.992 276.1 119.068 C 276.1 87.144 224.331 119.93 224.331 88.006 C 224.331 56.082 275.669 89.732 276.1 57.378 C 276.532 25.022 224.331 57.808 224.331 25.884 C 224.331 -3.452 269.197 22.864 276.1 0"/>
		<path d="M 175.583 224.332 C 152.718 229.508 179.465 276.1 149.698 276.1 C 117.342 276.1 150.992 224.332 119.068 224.332 C 87.144 224.332 119.931 276.1 88.007 276.1 C 56.083 276.1 89.732 224.762 57.377 224.332 C 24.159 224.332 57.809 276.1 25.884 276.1 C -3.451 276.1 22.864 231.234 0 224.332"/>
		<path d="M 179.033 284.728 C 166.523 304.572 218.291 318.378 197.153 339.516 C 174.288 362.382 161.778 301.984 138.912 324.85 C 116.48 347.282 176.014 360.656 153.149 383.52 C 130.716 405.954 118.205 345.988 94.91 368.852 C 71.614 391.716 132.01 404.66 109.578 427.092 C 88.869 447.8 75.496 397.326 54.789 408.974"/>
		<path d="M 224.331 324.85 C 229.509 347.714 276.1 320.966 276.1 350.734 C 276.1 383.088 224.331 349.44 224.331 381.364 C 224.331 413.288 276.1 380.5 276.1 412.424 C 276.1 444.78 224.763 410.698 224.331 443.054 C 223.9 475.41 276.1 441.76 276.1 474.116 C 276.1 503.452 231.233 477.136 224.331 500"/>
		<path d="M 284.728 321.398 C 304.573 333.908 318.378 282.14 339.517 303.278 C 362.381 326.144 301.984 338.654 324.849 361.518 C 347.283 383.952 360.656 324.418 383.52 347.282 C 405.953 369.716 345.988 382.226 368.853 405.522 C 391.717 428.818 404.659 368.422 427.092 390.854 C 447.8 411.562 397.325 424.936 408.973 445.642"/>
	</g>
	<path d="M 215.704 179.034 C 195.858 166.522 182.053 218.292 160.915 197.152 C 138.05 174.288 198.447 161.778 175.583 138.912 C 153.149 116.48 139.775 176.014 116.911 153.15 C 94.478 130.716 154.443 118.206 131.579 94.91 C 108.715 71.614 95.772 132.01 73.339 109.578 C 52.632 88.87 103.106 75.496 91.458 54.788" style="fill: none; stroke: rgb(255, 234, 0); stroke-linecap: round; stroke-miterlimit: 10; stroke-width: 8px;"/>
  <text style="fill: rgb(51, 51, 51); font-family: Arial, sans-serif; font-size: 178.2px; font-weight: 700; white-space: pre;" y="297.147" x="75.073" transform="matrix(1.364619, 0, 0, 1.507295, -102.446022, -104.846786)">VHS</text>
</svg>